<svg xmlns="http://www.w3.org/2000/svg" viewBox="0 0 512 512">
<defs><linearGradient id="g1" x1="0" y1="0" x2="1" y2="1"><stop offset="0" stop-color="#ff7a59"/><stop offset="1" stop-color="#ffb74a"/></linearGradient></defs>
<path d="M96 236c0-80 64-140 160-140s160 60 160 140c0 126-84 196-160 196S96 362 96 236z" fill="url(#g1)"/>
<path d="M170 170 118 92c-10-15 6-33 23-26l92 37" fill="#ff6a3d"/>
<path d="M342 170 394 92c10-15-6-33-23-26l-92 37" fill="#ff6a3d"/>
<path d="M152 272c16 58 60 96 104 96s88-38 104-96c-36-20-72-30-104-30s-68 10-104 30z" fill="#fff7ed"/>
<circle cx="200" cy="240" r="18" fill="#1f2937"/><circle cx="312" cy="240" r="18" fill="#1f2937"/>
<path d="M256 260c12 0 22 8 22 18s-10 18-22 18-22-8-22-18 10-18 22-18z" fill="#1f2937"/>
<path d="M220 308c10 14 22 22 36 22s26-8 36-22" fill="none" stroke="#1f2937" stroke-width="14" stroke-linecap="round"/>
</svg>